# xmcd CD database file
#
# Track frame offsets:
#	150
#	25857
#	47403
#	76629
#	101008
#	118830
#	139771
#	167123
#	194128
#	217159
#
# Disc length: 3100 seconds
#
# Revision: 1
# Processed by: cddbd v1.5.2PL0 Copyright (c) Steve Scherf et al.
# Submitted via: CDex 1.70beta2
#
DISCID=8b0c1a0a
DTITLE=ROYAL HUNT - COLLISION COURSE
DYEAR=2008
DGENRE=Heavy Metal
TTITLE0=Principles of Paradox
TTITLE1=The First Rock
TTITLE2=Exit Wound
TTITLE3=Divide and Reign
TTITLE4=High Noon at the  Battlefield
TTITLE5=The Clan
TTITLE6=Blood in Blood Out
TTITLE7=Tears of the Sun
TTITLE8=Hostile Breed
TTITLE9=Chaos A.C.
EXTD=YEAR: 2008
EXTT0=
EXTT1=
EXTT2=
EXTT3=
EXTT4=
EXTT5=
EXTT6=
EXTT7=
EXTT8=
EXTT9=
PLAYORDER=
